<svg width="506" height="126" viewBox="0 0 506 126" fill="none" xmlns="http://www.w3.org/2000/svg">
<path d="M479.236 72.442H489.896V74.434H485.709V85.61H483.404V74.434H479.236V72.442Z" fill="#1C1C1F"/>
<path d="M492.03 72.442H495.276L498.91 82.752H498.946L502.487 72.442H505.697V85.61H503.502V75.448H503.465L499.813 85.61H497.914L494.262 75.448H494.225V85.61H492.03V72.442Z" fill="#1C1C1F"/>
<path d="M236.591 124.964C243.529 124.927 249.291 122.395 253.953 117.366C258.578 112.337 260.89 105.987 260.89 98.279C260.89 90.681 258.504 84.405 253.769 79.45C248.998 74.494 243.015 72.072 235.857 72.182L216.991 72.329V125.111L236.591 124.964ZM224.809 80.551L235.857 80.404C240.592 80.294 244.556 81.909 247.75 85.286C250.943 88.699 252.521 93.104 252.521 98.573C252.521 103.969 250.906 108.373 247.64 111.75C244.373 115.164 240.335 116.889 235.527 116.999L224.809 117.146V80.551Z" fill="#1C1C1F"/>
<path d="M302.515 125.111V117.072H276.051V102.317H300.937V94.609H276.051V80.551H302.515V72.476H268.012V125.111H302.515Z" fill="#1C1C1F"/>
<path d="M326.705 125.424C332.395 125.424 337.093 123.992 340.727 121.166C344.361 118.34 346.196 114.559 346.196 109.787C346.196 105.64 344.728 102.189 341.755 99.51C338.781 96.83 333.753 95.105 326.632 94.298C320.025 93.527 315.988 90.958 315.988 86.957C315.988 85.158 316.832 83.507 318.484 82.075C320.135 80.644 322.411 79.946 325.311 79.946C328.247 79.946 330.743 80.717 332.835 82.222C334.891 83.763 336.029 85.856 336.212 88.535H345.058C344.801 83.323 342.966 79.249 339.479 76.276C335.992 73.302 331.294 71.834 325.384 71.834C319.952 71.834 315.474 73.339 311.913 76.312C308.353 79.285 306.591 82.956 306.591 87.25C306.591 91.104 308.206 94.408 311.473 97.124C314.74 99.877 319.952 101.602 327.183 102.373C333.606 102.997 336.799 105.456 336.799 109.714C336.799 111.769 335.882 113.605 334.046 115.183C332.211 116.798 329.752 117.606 326.705 117.606C319.988 117.606 315.804 114.412 314.483 108.686H305.16C305.563 114.045 307.839 118.156 312.023 121.056C316.208 123.956 321.09 125.424 326.705 125.424Z" fill="#1C1C1F"/>
<path d="M361.944 72.476H353.318V125.111H361.944V72.476Z" fill="#1C1C1F"/>
<path d="M393.805 125.494C397.072 125.494 400.119 124.796 402.945 123.365C405.771 121.97 408.047 119.988 409.699 117.382L410.286 125.127H417.517V98.075H393.805V105.893H408.855C407.9 109.747 406.065 112.61 403.312 114.482C400.559 116.354 397.439 117.345 393.989 117.382C389.474 117.419 385.804 115.694 382.977 112.17C380.151 108.683 378.72 104.315 378.72 99.103C378.72 93.744 380.151 89.229 382.977 85.595C385.804 81.961 389.548 80.163 394.209 80.163C397.916 80.163 401 81.227 403.496 83.356C405.955 85.485 407.496 88.055 408.047 91.064H417.517C416.709 85.522 414.25 80.934 410.176 77.337C406.102 73.776 400.89 71.978 394.576 71.978C387.272 71.978 381.252 74.547 376.591 79.649C371.892 84.751 369.507 91.211 369.47 99.029C369.433 106.664 371.709 112.977 376.334 117.969C380.959 122.998 386.795 125.494 393.805 125.494Z" fill="#1C1C1F"/>
<path d="M469.346 125.178V72.469H461.454V113.983L437.009 72.469H426.878V125.104H434.77V84.876L458.445 125.104L469.346 125.178Z" fill="#1C1C1F"/>
<path d="M225.763 53.913V30.458H250.503V53.913H259.312V1.27698H250.503V23.227H225.763V1.27698H216.991V53.913H225.763Z" fill="#1C1C1F"/>
<path d="M309.159 47.078C313.967 41.976 316.353 35.553 316.353 27.808C316.353 19.99 313.967 13.53 309.159 8.42798C304.351 3.32598 298.404 0.755981 291.394 0.755981C284.383 0.755981 278.473 3.28898 273.665 8.39098C268.857 13.493 266.434 19.916 266.434 27.661C266.434 35.479 268.857 41.939 273.665 47.041C278.473 52.143 284.383 54.713 291.394 54.713C298.404 54.713 304.351 52.18 309.159 47.078ZM291.32 46.674C286.659 46.674 282.841 44.876 279.795 41.315C276.748 37.755 275.243 33.277 275.243 27.881C275.243 22.339 276.748 17.714 279.795 14.08C282.805 10.446 286.659 8.64798 291.394 8.64798C296.129 8.64798 300.056 10.483 303.103 14.117C306.149 17.787 307.691 22.412 307.691 28.028C307.691 33.46 306.186 37.939 303.139 41.425C300.093 44.912 296.129 46.674 291.32 46.674Z" fill="#1C1C1F"/>
<path d="M331.587 54.052V33.167H345.572C350.27 33.167 354.088 31.662 357.024 28.689C359.96 25.716 361.429 21.935 361.429 17.384C361.429 12.759 359.997 8.90496 357.134 5.85796C354.271 2.81196 350.564 1.26996 346.012 1.26996L323.475 1.34296V54.052H331.587ZM331.587 8.42796H343.92C346.6 8.42796 348.839 9.19796 350.601 10.74C352.362 12.318 353.243 14.484 353.243 17.274C353.243 20.1 352.362 22.229 350.637 23.734C348.875 25.239 346.636 26.009 343.92 26.009H331.587V8.42796Z" fill="#1C1C1F"/>
<path d="M401.549 53.913V45.874H375.084V31.119H399.97V23.411H375.084V9.35298H401.549V1.27698H367.046V53.913H401.549Z" fill="#1C1C1F"/>
<path d="M133.324 48.433H61.848V77.921H133.324V48.433Z" fill="#1C1C1F"/>
<path fill-rule="evenodd" clip-rule="evenodd" d="M61.848 48.433L34.623 1.27698H0.572998L27.75 48.349L61.848 48.433Z" fill="#1C1C1F"/>
<path fill-rule="evenodd" clip-rule="evenodd" d="M0.552979 125.111L27.68 78.126L61.848 77.922L34.604 125.111H0.552979Z" fill="#1C1C1F"/>
<path fill-rule="evenodd" clip-rule="evenodd" d="M133.324 48.433L160.55 1.27698H194.6L167.423 48.349L133.324 48.433Z" fill="#1C1C1F"/>
<path fill-rule="evenodd" clip-rule="evenodd" d="M194.619 125.111L167.493 78.126L133.324 77.922L160.569 125.111H194.619Z" fill="#1C1C1F"/>
</svg>
