<svg width="506" xmlns="http://www.w3.org/2000/svg" height="126" id="screenshot-864cb616-f91d-80fb-8006-b99f3a1ceff1" viewBox="0 0 506 126" xmlns:xlink="http://www.w3.org/1999/xlink" fill="none" version="1.1"><g id="shape-864cb616-f91d-80fb-8006-b99f3a1ceff1" width="506" height="126" rx="0" ry="0" style="fill: rgb(0, 0, 0);"><g id="shape-864cb616-f91d-80fb-8006-b99f3a1ceff2" style="display: none;"><g class="fills" id="fills-864cb616-f91d-80fb-8006-b99f3a1ceff2"><rect width="506" height="126" x="0" transform="matrix(1.000000, 0.000000, 0.000000, 1.000000, 0.000000, 0.000000)" style="fill: none;" ry="0" fill="none" rx="0" y="0"/></g></g><g id="shape-864cb616-f91d-80fb-8006-b99f3a1ceff3"><g class="fills" id="fills-864cb616-f91d-80fb-8006-b99f3a1ceff3"><path d="M479.2359619140625,72.4420166015625L489.89599609375,72.4420166015625L489.89599609375,74.4339599609375L485.708984375,74.4339599609375L485.708984375,85.6099853515625L483.40399169921875,85.6099853515625L483.40399169921875,74.4339599609375L479.2359619140625,74.4339599609375L479.2359619140625,72.4420166015625Z" style="fill: rgb(255, 132, 24); fill-opacity: 1;"/></g></g><g id="shape-864cb616-f91d-80fb-8006-b99f3a1ceff4"><g class="fills" id="fills-864cb616-f91d-80fb-8006-b99f3a1ceff4"><path d="M492.030029296875,72.4420166015625L495.2760009765625,72.4420166015625L498.9100341796875,82.75201416015625L498.946044921875,82.75201416015625L502.48699951171875,72.4420166015625L505.697021484375,72.4420166015625L505.697021484375,85.6099853515625L503.50201416015625,85.6099853515625L503.50201416015625,75.447998046875L503.4649658203125,75.447998046875L499.81298828125,85.6099853515625L497.91400146484375,85.6099853515625L494.261962890625,75.447998046875L494.2249755859375,75.447998046875L494.2249755859375,85.6099853515625L492.030029296875,85.6099853515625L492.030029296875,72.4420166015625Z" style="fill: rgb(255, 132, 24); fill-opacity: 1;"/></g></g><g id="shape-864cb616-f91d-80fb-8006-b99f3a1ceff5"><g class="fills" id="fills-864cb616-f91d-80fb-8006-b99f3a1ceff5"><path d="M236.59100341796875,124.9639892578125C243.52899169921875,124.927001953125,249.291015625,122.39501953125,253.9530029296875,117.365966796875C258.5780029296875,112.33697509765625,260.8900146484375,105.98699951171875,260.8900146484375,98.27899169921875C260.8900146484375,90.6810302734375,258.5040283203125,84.405029296875,253.76898193359375,79.45001220703125C248.99798583984375,74.4940185546875,243.0150146484375,72.072021484375,235.85699462890625,72.1820068359375L216.99099731445312,72.3289794921875L216.99099731445312,125.11102294921875L236.59100341796875,124.9639892578125ZM224.80902099609375,80.551025390625L235.85699462890625,80.40399169921875C240.59197998046875,80.29400634765625,244.55599975585938,81.90899658203125,247.75,85.2860107421875C250.9429931640625,88.698974609375,252.52099609375,93.10400390625,252.52099609375,98.572998046875C252.52099609375,103.968994140625,250.906005859375,108.37298583984375,247.6400146484375,111.75C244.37298583984375,115.16400146484375,240.33502197265625,116.88897705078125,235.5269775390625,116.9990234375L224.80902099609375,117.14599609375L224.80902099609375,80.551025390625Z" style="fill: rgb(255, 132, 24); fill-opacity: 1;"/></g></g><g id="shape-864cb616-f91d-80fb-8006-b99f3a1ceff6"><g class="fills" id="fills-864cb616-f91d-80fb-8006-b99f3a1ceff6"><path d="M302.5150146484375,125.11102294921875L302.5150146484375,117.072021484375L276.051025390625,117.072021484375L276.051025390625,102.3170166015625L300.93701171875,102.3170166015625L300.93701171875,94.6090087890625L276.051025390625,94.6090087890625L276.051025390625,80.551025390625L302.5150146484375,80.551025390625L302.5150146484375,72.47601318359375L268.011962890625,72.47601318359375L268.011962890625,125.11102294921875L302.5150146484375,125.11102294921875Z" style="fill: rgb(255, 132, 24); fill-opacity: 1;"/></g></g><g id="shape-864cb616-f91d-80fb-8006-b99f3a1ceff7"><g class="fills" id="fills-864cb616-f91d-80fb-8006-b99f3a1ceff7"><path d="M326.7049560546875,125.42401123046875C332.39501953125,125.42401123046875,337.093017578125,123.99200439453125,340.72698974609375,121.166015625C344.3609619140625,118.3399658203125,346.196044921875,114.55902099609375,346.196044921875,109.7869873046875C346.196044921875,105.6400146484375,344.72802734375,102.18902587890625,341.7550048828125,99.510009765625C338.781005859375,96.83001708984375,333.75299072265625,95.10498046875,326.6319580078125,94.2979736328125C320.0250244140625,93.5269775390625,315.988037109375,90.9580078125,315.988037109375,86.95703125C315.988037109375,85.157958984375,316.83203125,83.50701904296875,318.4840087890625,82.07501220703125C320.135009765625,80.64398193359375,322.4110107421875,79.94598388671875,325.31103515625,79.94598388671875C328.24700927734375,79.94598388671875,330.7430419921875,80.717041015625,332.8349609375,82.22198486328125C334.8909912109375,83.76300048828125,336.02899169921875,85.85601806640625,336.2120361328125,88.5350341796875L345.0579833984375,88.5350341796875C344.801025390625,83.322998046875,342.96600341796875,79.2490234375,339.47900390625,76.2760009765625C335.99200439453125,73.302001953125,331.29400634765625,71.833984375,325.384033203125,71.833984375C319.9520263671875,71.833984375,315.4739990234375,73.3389892578125,311.9129638671875,76.31201171875C308.35302734375,79.2850341796875,306.59100341796875,82.95599365234375,306.59100341796875,87.25C306.59100341796875,91.10400390625,308.20599365234375,94.407958984375,311.4730224609375,97.1240234375C314.739990234375,99.87701416015625,319.9520263671875,101.60198974609375,327.1829833984375,102.37298583984375C333.60595703125,102.99700927734375,336.79901123046875,105.45599365234375,336.79901123046875,109.7139892578125C336.79901123046875,111.76898193359375,335.8819580078125,113.60498046875,334.0460205078125,115.1829833984375C332.21099853515625,116.7979736328125,329.75201416015625,117.60601806640625,326.7049560546875,117.60601806640625C319.988037109375,117.60601806640625,315.803955078125,114.4119873046875,314.4830322265625,108.68597412109375L305.1600341796875,108.68597412109375C305.56298828125,114.04498291015625,307.8389892578125,118.156005859375,312.02301025390625,121.0560302734375C316.2080078125,123.95599365234375,321.0899658203125,125.42401123046875,326.7049560546875,125.42401123046875Z" style="fill: rgb(255, 132, 24); fill-opacity: 1;"/></g></g><g id="shape-864cb616-f91d-80fb-8006-b99f3a1ceff8"><g class="fills" id="fills-864cb616-f91d-80fb-8006-b99f3a1ceff8"><path d="M361.9439697265625,72.47601318359375L353.3179931640625,72.47601318359375L353.3179931640625,125.11102294921875L361.9439697265625,125.11102294921875L361.9439697265625,72.47601318359375Z" style="fill: rgb(255, 132, 24); fill-opacity: 1;"/></g></g><g id="shape-864cb616-f91d-80fb-8006-b99f3a1ceff9"><g class="fills" id="fills-864cb616-f91d-80fb-8006-b99f3a1ceff9"><path d="M393.80499267578125,125.4940185546875C397.072021484375,125.4940185546875,400.1190185546875,124.7960205078125,402.94500732421875,123.364990234375C405.77099609375,121.969970703125,408.0469970703125,119.98797607421875,409.698974609375,117.38201904296875L410.2860107421875,125.12701416015625L417.5169677734375,125.12701416015625L417.5169677734375,98.07501220703125L393.80499267578125,98.07501220703125L393.80499267578125,105.89300537109375L408.85498046875,105.89300537109375C407.9000244140625,109.74700927734375,406.06500244140625,112.6099853515625,403.31201171875,114.48199462890625C400.5589599609375,116.35400390625,397.43896484375,117.344970703125,393.989013671875,117.38201904296875C389.4739990234375,117.41900634765625,385.803955078125,115.6939697265625,382.97698974609375,112.16998291015625C380.1510009765625,108.6829833984375,378.719970703125,104.31500244140625,378.719970703125,99.10302734375C378.719970703125,93.7440185546875,380.1510009765625,89.22900390625,382.97698974609375,85.594970703125C385.803955078125,81.96099853515625,389.5479736328125,80.1629638671875,394.208984375,80.1629638671875C397.916015625,80.1629638671875,401,81.22698974609375,403.4959716796875,83.35601806640625C405.9549560546875,85.4849853515625,407.4959716796875,88.05499267578125,408.0469970703125,91.06396484375L417.5169677734375,91.06396484375C416.708984375,85.52197265625,414.25,80.9339599609375,410.176025390625,77.3370361328125C406.10198974609375,73.7760009765625,400.8900146484375,71.97802734375,394.57598876953125,71.97802734375C387.27197265625,71.97802734375,381.25201416015625,74.5469970703125,376.59100341796875,79.64898681640625C371.8919677734375,84.7509765625,369.5069580078125,91.21099853515625,369.469970703125,99.02899169921875C369.4329833984375,106.66400146484375,371.708984375,112.97698974609375,376.333984375,117.968994140625C380.958984375,122.99798583984375,386.7950439453125,125.4940185546875,393.80499267578125,125.4940185546875Z" style="fill: rgb(255, 132, 24); fill-opacity: 1;"/></g></g><g id="shape-864cb616-f91d-80fb-8006-b99f3a1ceffa"><g class="fills" id="fills-864cb616-f91d-80fb-8006-b99f3a1ceffa"><path d="M469.34600830078125,125.177978515625L469.34600830078125,72.468994140625L461.4539794921875,72.468994140625L461.4539794921875,113.9830322265625L437.009033203125,72.468994140625L426.87799072265625,72.468994140625L426.87799072265625,125.10400390625L434.77001953125,125.10400390625L434.77001953125,84.8759765625L458.44500732421875,125.10400390625L469.34600830078125,125.177978515625Z" style="fill: rgb(255, 132, 24); fill-opacity: 1;"/></g></g><g id="shape-864cb616-f91d-80fb-8006-b99f3a1ceffb"><g class="fills" id="fills-864cb616-f91d-80fb-8006-b99f3a1ceffb"><path d="M225.76300048828125,53.9129638671875L225.76300048828125,30.4580078125L250.50299072265625,30.4580078125L250.50299072265625,53.9129638671875L259.31201171875,53.9129638671875L259.31201171875,1.2769775390625L250.50299072265625,1.2769775390625L250.50299072265625,23.22698974609375L225.76300048828125,23.22698974609375L225.76300048828125,1.2769775390625L216.99099731445312,1.2769775390625L216.99099731445312,53.9129638671875L225.76300048828125,53.9129638671875Z" style="fill: rgb(255, 132, 24); fill-opacity: 1;"/></g></g><g id="shape-864cb616-f91d-80fb-8006-b99f3a1ceffc"><g class="fills" id="fills-864cb616-f91d-80fb-8006-b99f3a1ceffc"><path d="M309.15899658203125,47.0780029296875C313.967041015625,41.97601318359375,316.35302734375,35.552978515625,316.35302734375,27.8079833984375C316.35302734375,19.989990234375,313.967041015625,13.530029296875,309.15899658203125,8.427978515625C304.35101318359375,3.32598876953125,298.40399169921875,0.7559814453125,291.39404296875,0.7559814453125C284.38299560546875,0.7559814453125,278.4730224609375,3.2889404296875,273.6650390625,8.3909912109375C268.85699462890625,13.4930419921875,266.4339599609375,19.916015625,266.4339599609375,27.6610107421875C266.4339599609375,35.47900390625,268.85699462890625,41.93896484375,273.6650390625,47.041015625C278.4730224609375,52.14300537109375,284.38299560546875,54.7130126953125,291.39404296875,54.7130126953125C298.40399169921875,54.7130126953125,304.35101318359375,52.17999267578125,309.15899658203125,47.0780029296875ZM291.32000732421875,46.67401123046875C286.65899658203125,46.67401123046875,282.84100341796875,44.8759765625,279.7950439453125,41.31500244140625C276.74798583984375,37.7550048828125,275.2430419921875,33.2769775390625,275.2430419921875,27.8809814453125C275.2430419921875,22.3389892578125,276.74798583984375,17.7139892578125,279.7950439453125,14.0799560546875C282.80499267578125,10.446044921875,286.65899658203125,8.64794921875,291.39404296875,8.64794921875C296.1290283203125,8.64794921875,300.0560302734375,10.4830322265625,303.10302734375,14.11700439453125C306.14898681640625,17.7869873046875,307.6910400390625,22.4119873046875,307.6910400390625,28.02801513671875C307.6910400390625,33.4599609375,306.18603515625,37.93896484375,303.1390380859375,41.42498779296875C300.093017578125,44.9119873046875,296.1290283203125,46.67401123046875,291.32000732421875,46.67401123046875Z" style="fill: rgb(255, 132, 24); fill-opacity: 1;"/></g></g><g id="shape-864cb616-f91d-80fb-8006-b99f3a1ceffd"><g class="fills" id="fills-864cb616-f91d-80fb-8006-b99f3a1ceffd"><path d="M331.5870361328125,54.052001953125L331.5870361328125,33.1669921875L345.572021484375,33.1669921875C350.27001953125,33.1669921875,354.0880126953125,31.6619873046875,357.02398681640625,28.68896484375C359.9599609375,25.71600341796875,361.428955078125,21.93499755859375,361.428955078125,17.384033203125C361.428955078125,12.759033203125,359.99700927734375,8.90496826171875,357.134033203125,5.85797119140625C354.27099609375,2.81195068359375,350.56396484375,1.26995849609375,346.011962890625,1.26995849609375L323.4749755859375,1.34295654296875L323.4749755859375,54.052001953125L331.5870361328125,54.052001953125ZM331.5870361328125,8.427978515625L343.9200439453125,8.427978515625C346.5999755859375,8.427978515625,348.8389892578125,9.197998046875,350.60101318359375,10.739990234375C352.36199951171875,12.3179931640625,353.2430419921875,14.4840087890625,353.2430419921875,17.27398681640625C353.2430419921875,20.0999755859375,352.36199951171875,22.22900390625,350.636962890625,23.7340087890625C348.875,25.239013671875,346.635986328125,26.009033203125,343.9200439453125,26.009033203125L331.5870361328125,26.009033203125L331.5870361328125,8.427978515625Z" style="fill: rgb(255, 132, 24); fill-opacity: 1;"/></g></g><g id="shape-864cb616-f91d-80fb-8006-b99f3a1ceffe"><g class="fills" id="fills-864cb616-f91d-80fb-8006-b99f3a1ceffe"><path d="M401.54901123046875,53.9129638671875L401.54901123046875,45.8740234375L375.083984375,45.8740234375L375.083984375,31.1190185546875L399.969970703125,31.1190185546875L399.969970703125,23.4110107421875L375.083984375,23.4110107421875L375.083984375,9.35296630859375L401.54901123046875,9.35296630859375L401.54901123046875,1.2769775390625L367.0460205078125,1.2769775390625L367.0460205078125,53.9129638671875L401.54901123046875,53.9129638671875Z" style="fill: rgb(255, 132, 24); fill-opacity: 1;"/></g></g><g id="shape-864cb616-f91d-80fb-8006-b99f3a1cefff"><g class="fills" id="fills-864cb616-f91d-80fb-8006-b99f3a1cefff"><path d="M133.32400512695312,48.4329833984375L61.847991943359375,48.4329833984375L61.847991943359375,77.9210205078125L133.32400512695312,77.9210205078125L133.32400512695312,48.4329833984375Z" style="fill: rgb(255, 132, 24); fill-opacity: 1;"/></g></g><g id="shape-864cb616-f91d-80fb-8006-b99f3a1cf000"><g class="fills" id="fills-864cb616-f91d-80fb-8006-b99f3a1cf000"><path d="M61.847991943359375,48.4329833984375L34.62298583984375,1.2769775390625L0.572998046875,1.2769775390625L27.75,48.3489990234375L61.847991943359375,48.4329833984375Z" fill-rule="evenodd" clip-rule="evenodd" style="fill: rgb(255, 132, 24); fill-opacity: 1;"/></g></g><g id="shape-864cb616-f91d-80fb-8006-b99f3a1cf001"><g class="fills" id="fills-864cb616-f91d-80fb-8006-b99f3a1cf001"><path d="M0.552978515625,125.11102294921875L27.67999267578125,78.1259765625L61.847991943359375,77.9219970703125L34.60400390625,125.11102294921875L0.552978515625,125.11102294921875Z" fill-rule="evenodd" clip-rule="evenodd" style="fill: rgb(255, 132, 24); fill-opacity: 1;"/></g></g><g id="shape-864cb616-f91d-80fb-8006-b99f3a1cf002"><g class="fills" id="fills-864cb616-f91d-80fb-8006-b99f3a1cf002"><path d="M133.32400512695312,48.4329833984375L160.54998779296875,1.2769775390625L194.60000610351562,1.2769775390625L167.42300415039062,48.3489990234375L133.32400512695312,48.4329833984375Z" fill-rule="evenodd" clip-rule="evenodd" style="fill: rgb(255, 132, 24); fill-opacity: 1;"/></g></g><g id="shape-864cb616-f91d-80fb-8006-b99f3a1cf003"><g class="fills" id="fills-864cb616-f91d-80fb-8006-b99f3a1cf003"><path d="M194.6190185546875,125.11102294921875L167.49298095703125,78.1259765625L133.32400512695312,77.9219970703125L160.56900024414062,125.11102294921875L194.6190185546875,125.11102294921875Z" fill-rule="evenodd" clip-rule="evenodd" style="fill: rgb(255, 132, 24); fill-opacity: 1;"/></g></g></g></svg>