<svg width="323" xmlns="http://www.w3.org/2000/svg" height="80.431" id="screenshot-864cb616-f91d-80fb-8006-b99f3a1ceff1" viewBox="0 0 323 80.431" xmlns:xlink="http://www.w3.org/1999/xlink" fill="none" version="1.1"><g id="shape-864cb616-f91d-80fb-8006-b99f3a1ceff1" width="506" height="126" rx="0" ry="0" style="fill: rgb(0, 0, 0);"><g id="shape-864cb616-f91d-80fb-8006-b99f3a1ceff2" style="display: none;"><g class="fills" id="fills-864cb616-f91d-80fb-8006-b99f3a1ceff2"><rect width="323" height="80.43083003952574" x="0" transform="matrix(1.000000, 0.000000, 0.000000, 1.000000, 0.000000, 0.000000)" style="fill: none;" ry="0" fill="none" rx="0" y="0"/></g></g><g id="shape-864cb616-f91d-80fb-8006-b99f3a1ceff3"><g class="fills" id="fills-864cb616-f91d-80fb-8006-b99f3a1ceff3"><path d="M305.91546630859375,46.24261474609375L312.72015380859375,46.24261474609375L312.72015380859375,47.51416015625L310.04742431640625,47.51416015625L310.04742431640625,54.64825439453125L308.5760498046875,54.64825439453125L308.5760498046875,47.51416015625L305.91546630859375,47.51416015625L305.91546630859375,46.24261474609375Z" style="fill: rgb(255, 132, 24); fill-opacity: 1;"/></g></g><g id="shape-864cb616-f91d-80fb-8006-b99f3a1ceff4"><g class="fills" id="fills-864cb616-f91d-80fb-8006-b99f3a1ceff4"><path d="M314.0823974609375,46.24261474609375L316.1544189453125,46.24261474609375L318.47418212890625,52.82391357421875L318.4971923828125,52.82391357421875L320.75750732421875,46.24261474609375L322.80657958984375,46.24261474609375L322.80657958984375,54.64825439453125L321.40545654296875,54.64825439453125L321.40545654296875,48.1614990234375L321.38177490234375,48.1614990234375L319.05059814453125,54.64825439453125L317.83837890625,54.64825439453125L315.50714111328125,48.1614990234375L315.4835205078125,48.1614990234375L315.4835205078125,54.64825439453125L314.0823974609375,54.64825439453125L314.0823974609375,46.24261474609375Z" style="fill: rgb(255, 132, 24); fill-opacity: 1;"/></g></g><g id="shape-864cb616-f91d-80fb-8006-b99f3a1ceff5"><g class="fills" id="fills-864cb616-f91d-80fb-8006-b99f3a1ceff5"><path d="M151.02548217773438,79.76953125C155.45428466796875,79.74591064453125,159.13241577148438,78.129638671875,162.10833740234375,74.91937255859375C165.0606689453125,71.70916748046875,166.5364990234375,67.65576171875,166.5364990234375,62.73541259765625C166.5364990234375,57.88531494140625,165.013427734375,53.87908935546875,161.99087524414062,50.71612548828125C158.94534301757812,47.552490234375,155.12619018554688,46.0064697265625,150.55694580078125,46.07666015625L138.51400756835938,46.17047119140625L138.51400756835938,79.86334228515625L151.02548217773438,79.76953125ZM143.50457763671875,51.4189453125L150.55694580078125,51.3250732421875C153.5794677734375,51.2548828125,156.10986328125,52.2857666015625,158.14871215820312,54.44146728515625C160.18692016601562,56.6201171875,161.19424438476562,59.4320068359375,161.19424438476562,62.923095703125C161.19424438476562,66.3675537109375,160.163330078125,69.1788330078125,158.07852172851562,71.33447265625C155.9930419921875,73.5137939453125,153.41543579101562,74.61492919921875,150.34628295898438,74.68511962890625L143.50457763671875,74.77899169921875L143.50457763671875,51.4189453125Z" style="fill: rgb(255, 132, 24); fill-opacity: 1;"/></g></g><g id="shape-864cb616-f91d-80fb-8006-b99f3a1ceff6"><g class="fills" id="fills-864cb616-f91d-80fb-8006-b99f3a1ceff6"><path d="M193.107421875,79.86334228515625L193.107421875,74.73175048828125L176.21438598632812,74.73175048828125L176.21438598632812,65.31304931640625L192.10009765625,65.31304931640625L192.10009765625,60.3927001953125L176.21438598632812,60.3927001953125L176.21438598632812,51.4189453125L193.107421875,51.4189453125L193.107421875,46.26434326171875L171.08273315429688,46.26434326171875L171.08273315429688,79.86334228515625L193.107421875,79.86334228515625Z" style="fill: rgb(255, 132, 24); fill-opacity: 1;"/></g></g><g id="shape-864cb616-f91d-80fb-8006-b99f3a1ceff7"><g class="fills" id="fills-864cb616-f91d-80fb-8006-b99f3a1ceff7"><path d="M208.548828125,80.06317138671875C212.18099975585938,80.06317138671875,215.179931640625,79.1490478515625,217.4996337890625,77.3450927734375C219.8193359375,75.5411376953125,220.99075317382812,73.12762451171875,220.99075317382812,70.0814208984375C220.99075317382812,67.43426513671875,220.05364990234375,65.2313232421875,218.15585327148438,63.521240234375C216.2574462890625,61.81048583984375,213.0478515625,60.70928955078125,208.50222778320312,60.19415283203125C204.28475952148438,59.7020263671875,201.707763671875,58.0621337890625,201.707763671875,55.50811767578125C201.707763671875,54.3597412109375,202.24652099609375,53.30584716796875,203.30105590820312,52.39178466796875C204.35494995117188,51.478271484375,205.80783081054688,51.03271484375,207.65902709960938,51.03271484375C209.53317260742188,51.03271484375,211.12649536132812,51.52490234375,212.46185302734375,52.485595703125C213.7742919921875,53.46923828125,214.500732421875,54.8052978515625,214.6175537109375,56.51544189453125L220.2642822265625,56.51544189453125C220.10025024414062,53.18841552734375,218.92889404296875,50.58782958984375,216.7030029296875,48.69000244140625C214.47711181640625,46.79156494140625,211.47817993164062,45.8544921875,207.70562744140625,45.8544921875C204.2381591796875,45.8544921875,201.379638671875,46.815185546875,199.10650634765625,48.7130126953125C196.83404541015625,50.61077880859375,195.70928955078125,52.9541015625,195.70928955078125,55.69512939453125C195.70928955078125,58.15533447265625,196.74020385742188,60.26434326171875,198.82565307617188,61.9981689453125C200.91110229492188,63.7554931640625,204.2381591796875,64.85662841796875,208.85397338867188,65.3487548828125C212.95401000976562,65.74713134765625,214.99224853515625,67.3167724609375,214.99224853515625,70.0347900390625C214.99224853515625,71.34661865234375,214.4068603515625,72.51861572265625,213.23492431640625,73.52587890625C212.06353759765625,74.55682373046875,210.49386596679688,75.0726318359375,208.548828125,75.0726318359375C204.26113891601562,75.0726318359375,201.59027099609375,73.03375244140625,200.7470703125,69.37860107421875L194.79583740234375,69.37860107421875C195.05303955078125,72.7994384765625,196.50592041015625,75.4237060546875,199.1767578125,77.27490234375C201.84820556640625,79.12603759765625,204.96453857421875,80.06317138671875,208.548828125,80.06317138671875Z" style="fill: rgb(255, 132, 24); fill-opacity: 1;"/></g></g><g id="shape-864cb616-f91d-80fb-8006-b99f3a1ceff8"><g class="fills" id="fills-864cb616-f91d-80fb-8006-b99f3a1ceff8"><path d="M231.04327392578125,46.26434326171875L225.5369873046875,46.26434326171875L225.5369873046875,79.86334228515625L231.04327392578125,79.86334228515625L231.04327392578125,46.26434326171875Z" style="fill: rgb(255, 132, 24); fill-opacity: 1;"/></g></g><g id="shape-864cb616-f91d-80fb-8006-b99f3a1ceff9"><g class="fills" id="fills-864cb616-f91d-80fb-8006-b99f3a1ceff9"><path d="M251.3814697265625,80.10784912109375C253.4669189453125,80.10784912109375,255.41192626953125,79.66229248046875,257.21588134765625,78.748779296875C259.01983642578125,77.8582763671875,260.47271728515625,76.5931396484375,261.5272216796875,74.92962646484375L261.90191650390625,79.87359619140625L266.51776123046875,79.87359619140625L266.51776123046875,62.605224609375L251.3814697265625,62.605224609375L251.3814697265625,67.595703125L260.98846435546875,67.595703125C260.37884521484375,70.055908203125,259.20751953125,71.8834228515625,257.45013427734375,73.07843017578125C255.6927490234375,74.27337646484375,253.701171875,74.906005859375,251.4989013671875,74.92962646484375C248.61679077148438,74.9532470703125,246.27407836914062,73.85205078125,244.46951293945312,71.60260009765625C242.66555786132812,69.376708984375,241.7520751953125,66.58843994140625,241.7520751953125,63.26141357421875C241.7520751953125,59.840576171875,242.66555786132812,56.95843505859375,244.46951293945312,54.638671875C246.27407836914062,52.3189697265625,248.66403198242188,51.17120361328125,251.63934326171875,51.17120361328125C254.00567626953125,51.17120361328125,255.97430419921875,51.85040283203125,257.56756591796875,53.20947265625C259.13726806640625,54.5684814453125,260.1209716796875,56.20904541015625,260.47271728515625,58.1297607421875L266.51776123046875,58.1297607421875C266.001953125,54.59210205078125,264.43231201171875,51.66339111328125,261.83172607421875,49.3673095703125C259.23114013671875,47.09417724609375,255.90411376953125,45.94647216796875,251.87359619140625,45.94647216796875C247.21115112304688,45.94647216796875,243.36837768554688,47.5863037109375,240.39306640625,50.8431396484375C237.39349365234375,54.09991455078125,235.87103271484375,58.2236328125,235.84744262695312,63.21417236328125C235.82382202148438,68.087890625,237.27667236328125,72.11773681640625,240.22900390625,75.3043212890625C243.18133544921875,78.5145263671875,246.90670776367188,80.10784912109375,251.3814697265625,80.10784912109375Z" style="fill: rgb(255, 132, 24); fill-opacity: 1;"/></g></g><g id="shape-864cb616-f91d-80fb-8006-b99f3a1ceffa"><g class="fills" id="fills-864cb616-f91d-80fb-8006-b99f3a1ceffa"><path d="M299.602294921875,79.9061279296875L299.602294921875,46.25982666015625L294.56451416015625,46.25982666015625L294.56451416015625,72.75994873046875L278.9603271484375,46.25982666015625L272.4932861328125,46.25982666015625L272.4932861328125,79.85888671875L277.53106689453125,79.85888671875L277.53106689453125,54.17974853515625L292.64373779296875,79.85888671875L299.602294921875,79.9061279296875Z" style="fill: rgb(255, 132, 24); fill-opacity: 1;"/></g></g><g id="shape-864cb616-f91d-80fb-8006-b99f3a1ceffb"><g class="fills" id="fills-864cb616-f91d-80fb-8006-b99f3a1ceffb"><path d="M144.113525390625,34.414794921875L144.113525390625,19.44256591796875L159.90606689453125,19.44256591796875L159.90606689453125,34.414794921875L165.52920532226562,34.414794921875L165.52920532226562,0.81512451171875L159.90606689453125,0.81512451171875L159.90606689453125,14.82672119140625L144.113525390625,14.82672119140625L144.113525390625,0.81512451171875L138.51400756835938,0.81512451171875L138.51400756835938,34.414794921875L144.113525390625,34.414794921875Z" style="fill: rgb(255, 132, 24); fill-opacity: 1;"/></g></g><g id="shape-864cb616-f91d-80fb-8006-b99f3a1ceffc"><g class="fills" id="fills-864cb616-f91d-80fb-8006-b99f3a1ceffc"><path d="M197.34854125976562,30.0517578125C200.41769409179688,26.79498291015625,201.94076538085938,22.69488525390625,201.94076538085938,17.75091552734375C201.94076538085938,12.76043701171875,200.41769409179688,8.63677978515625,197.34854125976562,5.37994384765625C194.27938842773438,2.12310791015625,190.48318481445312,0.4825439453125,186.00845336914062,0.4825439453125C181.53302001953125,0.4825439453125,177.76043701171875,2.0994873046875,174.69131469726562,5.3563232421875C171.62216186523438,8.6131591796875,170.075439453125,12.71319580078125,170.075439453125,17.6571044921875C170.075439453125,22.64764404296875,171.62216186523438,26.77130126953125,174.69131469726562,30.02813720703125C177.76043701171875,33.28497314453125,181.53302001953125,34.92547607421875,186.00845336914062,34.92547607421875C190.48318481445312,34.92547607421875,194.27938842773438,33.30859375,197.34854125976562,30.0517578125ZM185.961181640625,29.79388427734375C182.98587036132812,29.79388427734375,180.5487060546875,28.6461181640625,178.60433959960938,26.37298583984375C176.6593017578125,24.10052490234375,175.6986083984375,21.24200439453125,175.6986083984375,17.79754638671875C175.6986083984375,14.2598876953125,176.6593017578125,11.30755615234375,178.60433959960938,8.98779296875C180.52572631835938,6.66815185546875,182.98587036132812,5.52032470703125,186.00845336914062,5.52032470703125C189.03097534179688,5.52032470703125,191.53775024414062,6.69171142578125,193.48275756835938,9.011474609375C195.4271240234375,11.3541259765625,196.41146850585938,14.30645751953125,196.41146850585938,17.89141845703125C196.41146850585938,21.35882568359375,195.45077514648438,24.21795654296875,193.5057373046875,26.4432373046875C191.56134033203125,28.66912841796875,189.03097534179688,29.79388427734375,185.961181640625,29.79388427734375Z" style="fill: rgb(255, 132, 24); fill-opacity: 1;"/></g></g><g id="shape-864cb616-f91d-80fb-8006-b99f3a1ceffd"><g class="fills" id="fills-864cb616-f91d-80fb-8006-b99f3a1ceffd"><path d="M211.66525268554688,34.5035400390625L211.66525268554688,21.17181396484375L220.5924072265625,21.17181396484375C223.59133911132812,21.17181396484375,226.02850341796875,20.21112060546875,227.90264892578125,18.31329345703125C229.77682495117188,16.41552734375,230.71453857421875,14.00201416015625,230.71453857421875,11.096923828125C230.71453857421875,8.14459228515625,229.80047607421875,5.68438720703125,227.972900390625,3.7393798828125C226.14532470703125,1.79498291015625,223.77896118164062,0.8106689453125,220.87326049804688,0.8106689453125L206.48699951171875,0.85723876953125L206.48699951171875,34.5035400390625L211.66525268554688,34.5035400390625ZM211.66525268554688,5.37994384765625L219.53790283203125,5.37994384765625C221.24859619140625,5.37994384765625,222.6778564453125,5.8714599609375,223.8026123046875,6.85577392578125C224.92672729492188,7.863037109375,225.4891357421875,9.2457275390625,225.4891357421875,11.02667236328125C225.4891357421875,12.83062744140625,224.92672729492188,14.18963623046875,223.8255615234375,15.150390625C222.70083618164062,16.111083984375,221.27157592773438,16.60260009765625,219.53790283203125,16.60260009765625L211.66525268554688,16.60260009765625L211.66525268554688,5.37994384765625Z" style="fill: rgb(255, 132, 24); fill-opacity: 1;"/></g></g><g id="shape-864cb616-f91d-80fb-8006-b99f3a1ceffe"><g class="fills" id="fills-864cb616-f91d-80fb-8006-b99f3a1ceffe"><path d="M256.32476806640625,34.414794921875L256.32476806640625,29.283203125L239.43109130859375,29.283203125L239.43109130859375,19.864501953125L255.3167724609375,19.864501953125L255.3167724609375,14.94415283203125L239.43109130859375,14.94415283203125L239.43109130859375,5.97039794921875L256.32476806640625,5.97039794921875L256.32476806640625,0.81512451171875L234.30014038085938,0.81512451171875L234.30014038085938,34.414794921875L256.32476806640625,34.414794921875Z" style="fill: rgb(255, 132, 24); fill-opacity: 1;"/></g></g><g id="shape-864cb616-f91d-80fb-8006-b99f3a1cefff"><g class="fills" id="fills-864cb616-f91d-80fb-8006-b99f3a1cefff"><path d="M85.10604858398438,30.91668701171875L39.48004150390625,30.91668701171875L39.48004150390625,49.7401123046875L85.10604858398438,49.7401123046875L85.10604858398438,30.91668701171875Z" style="fill: rgb(255, 132, 24); fill-opacity: 1;"/></g></g><g id="shape-864cb616-f91d-80fb-8006-b99f3a1cf000"><g class="fills" id="fills-864cb616-f91d-80fb-8006-b99f3a1cf000"><path d="M39.48004150390625,30.91668701171875L22.101226806640625,0.81512451171875L0.365753173828125,0.81512451171875L17.71392822265625,30.86309814453125L39.48004150390625,30.91668701171875Z" fill-rule="evenodd" clip-rule="evenodd" style="fill: rgb(255, 132, 24); fill-opacity: 1;"/></g></g><g id="shape-864cb616-f91d-80fb-8006-b99f3a1cf001"><g class="fills" id="fills-864cb616-f91d-80fb-8006-b99f3a1cf001"><path d="M0.352996826171875,79.86334228515625L17.66925048828125,49.87091064453125L39.48004150390625,49.74072265625L22.089111328125,79.86334228515625L0.352996826171875,79.86334228515625Z" fill-rule="evenodd" clip-rule="evenodd" style="fill: rgb(255, 132, 24); fill-opacity: 1;"/></g></g><g id="shape-864cb616-f91d-80fb-8006-b99f3a1cf002"><g class="fills" id="fills-864cb616-f91d-80fb-8006-b99f3a1cf002"><path d="M85.10604858398438,30.91668701171875L102.4854736328125,0.81512451171875L124.220947265625,0.81512451171875L106.87277221679688,30.86309814453125L85.10604858398438,30.91668701171875Z" fill-rule="evenodd" clip-rule="evenodd" style="fill: rgb(255, 132, 24); fill-opacity: 1;"/></g></g><g id="shape-864cb616-f91d-80fb-8006-b99f3a1cf003"><g class="fills" id="fills-864cb616-f91d-80fb-8006-b99f3a1cf003"><path d="M124.23309326171875,79.86334228515625L106.91744995117188,49.87091064453125L85.10604858398438,49.74072265625L102.49758911132812,79.86334228515625L124.23309326171875,79.86334228515625Z" fill-rule="evenodd" clip-rule="evenodd" style="fill: rgb(255, 132, 24); fill-opacity: 1;"/></g></g></g></svg>