<svg width="323" xmlns="http://www.w3.org/2000/svg" height="81" id="screenshot-864cb616-f91d-80fb-8006-b9a05c165ed4" viewBox="0 0 323 81" xmlns:xlink="http://www.w3.org/1999/xlink" fill="none" version="1.1"><g id="shape-864cb616-f91d-80fb-8006-b9a05c165ed4" width="506" height="126" rx="0" ry="0" style="fill: rgb(0, 0, 0);"><g id="shape-864cb616-f91d-80fb-8006-b9a05c165ed5" style="display: none;"><g class="fills" id="fills-864cb616-f91d-80fb-8006-b9a05c165ed5"><rect width="323" height="81" x="0" transform="matrix(1.000000, 0.000000, 0.000000, 1.000000, 0.000000, 0.000000)" style="fill: none;" ry="0" fill="none" rx="0" y="0"/></g></g><g id="shape-864cb616-f91d-80fb-8006-b9a05c165ed6"><g class="fills" id="fills-864cb616-f91d-80fb-8006-b9a05c165ed6"><path d="M305.91546630859375,46.56988525390625L312.72015380859375,46.56988525390625L312.72015380859375,47.85040283203125L310.04742431640625,47.85040283203125L310.04742431640625,55.03497314453125L308.5760498046875,55.03497314453125L308.5760498046875,47.85040283203125L305.91546630859375,47.85040283203125L305.91546630859375,46.56988525390625Z" style="fill: rgb(255, 179, 0); fill-opacity: 1;"/></g></g><g id="shape-864cb616-f91d-80fb-8006-b9a05c165ed7"><g class="fills" id="fills-864cb616-f91d-80fb-8006-b9a05c165ed7"><path d="M314.0823974609375,46.56988525390625L316.1544189453125,46.56988525390625L318.47418212890625,53.19769287109375L318.4971923828125,53.19769287109375L320.75750732421875,46.56988525390625L322.80657958984375,46.56988525390625L322.80657958984375,55.03497314453125L321.40545654296875,55.03497314453125L321.40545654296875,48.50225830078125L321.38177490234375,48.50225830078125L319.05059814453125,55.03497314453125L317.83837890625,55.03497314453125L315.50714111328125,48.50225830078125L315.4835205078125,48.50225830078125L315.4835205078125,55.03497314453125L314.0823974609375,55.03497314453125L314.0823974609375,46.56988525390625Z" style="fill: rgb(255, 179, 0); fill-opacity: 1;"/></g></g><g id="shape-864cb616-f91d-80fb-8006-b9a05c165ed8"><g class="fills" id="fills-864cb616-f91d-80fb-8006-b9a05c165ed8"><path d="M151.02548217773438,80.333984375C155.45428466796875,80.3101806640625,159.13241577148438,78.6824951171875,162.10833740234375,75.4495849609375C165.0606689453125,72.216552734375,166.5364990234375,68.134521484375,166.5364990234375,63.17938232421875C166.5364990234375,58.294921875,165.013427734375,54.2603759765625,161.99087524414062,51.074951171875C158.94534301757812,47.8890380859375,155.12619018554688,46.33203125,150.55694580078125,46.4027099609375L138.51400756835938,46.4971923828125L138.51400756835938,80.4285888671875L151.02548217773438,80.333984375ZM143.50457763671875,51.78277587890625L150.55694580078125,51.68829345703125C153.5794677734375,51.6175537109375,156.10986328125,52.65576171875,158.14871215820312,54.82672119140625C160.18692016601562,57.020751953125,161.19424438476562,59.85260009765625,161.19424438476562,63.36834716796875C161.19424438476562,66.83721923828125,160.163330078125,69.66839599609375,158.07852172851562,71.8392333984375C155.9930419921875,74.0340576171875,153.41543579101562,75.142822265625,150.34628295898438,75.213623046875L143.50457763671875,75.30810546875L143.50457763671875,51.78277587890625Z" style="fill: rgb(255, 179, 0); fill-opacity: 1;"/></g></g><g id="shape-864cb616-f91d-80fb-8006-b9a05c165ed9"><g class="fills" id="fills-864cb616-f91d-80fb-8006-b9a05c165ed9"><path d="M193.107421875,80.4285888671875L193.107421875,75.2606201171875L176.21438598632812,75.2606201171875L176.21438598632812,65.77520751953125L192.10009765625,65.77520751953125L192.10009765625,60.820068359375L176.21438598632812,60.820068359375L176.21438598632812,51.78277587890625L193.107421875,51.78277587890625L193.107421875,46.59173583984375L171.08273315429688,46.59173583984375L171.08273315429688,80.4285888671875L193.107421875,80.4285888671875Z" style="fill: rgb(255, 179, 0); fill-opacity: 1;"/></g></g><g id="shape-864cb616-f91d-80fb-8006-b9a05c165eda"><g class="fills" id="fills-864cb616-f91d-80fb-8006-b9a05c165eda"><path d="M208.548828125,80.6297607421875C212.18099975585938,80.6297607421875,215.179931640625,79.7091064453125,217.4996337890625,77.8924560546875C219.8193359375,76.07568359375,220.99075317382812,73.6451416015625,220.99075317382812,70.57733154296875C220.99075317382812,67.91143798828125,220.05364990234375,65.69293212890625,218.15585327148438,63.970703125C216.2574462890625,62.2479248046875,213.0478515625,61.138916015625,208.50222778320312,60.6201171875C204.28475952148438,60.12451171875,201.707763671875,58.4730224609375,201.707763671875,55.90093994140625C201.707763671875,54.744384765625,202.24652099609375,53.68310546875,203.30105590820312,52.762451171875C204.35494995117188,51.84259033203125,205.80783081054688,51.39385986328125,207.65902709960938,51.39385986328125C209.53317260742188,51.39385986328125,211.12649536132812,51.8895263671875,212.46185302734375,52.85693359375C213.7742919921875,53.84759521484375,214.500732421875,55.193115234375,214.6175537109375,56.9154052734375L220.2642822265625,56.9154052734375C220.10025024414062,53.56475830078125,218.92889404296875,50.94580078125,216.7030029296875,49.0345458984375C214.47711181640625,47.12274169921875,211.47817993164062,46.17901611328125,207.70562744140625,46.17901611328125C204.2381591796875,46.17901611328125,201.379638671875,47.146484375,199.10650634765625,49.0577392578125C196.83404541015625,50.96893310546875,195.70928955078125,53.32891845703125,195.70928955078125,56.08929443359375C195.70928955078125,58.56683349609375,196.74020385742188,60.69085693359375,198.82565307617188,62.4368896484375C200.91110229492188,64.20660400390625,204.2381591796875,65.31561279296875,208.85397338867188,65.81121826171875C212.95401000976562,66.21240234375,214.99224853515625,67.79315185546875,214.99224853515625,70.5303955078125C214.99224853515625,71.8515625,214.4068603515625,73.03173828125,213.23492431640625,74.046142578125C212.06353759765625,75.08447265625,210.49386596679688,75.6038818359375,208.548828125,75.6038818359375C204.26113891601562,75.6038818359375,201.59027099609375,73.550537109375,200.7470703125,69.86956787109375L194.79583740234375,69.86956787109375C195.05303955078125,73.3145751953125,196.50592041015625,75.9573974609375,199.1767578125,77.82177734375C201.84820556640625,79.68603515625,204.96453857421875,80.6297607421875,208.548828125,80.6297607421875Z" style="fill: rgb(255, 179, 0); fill-opacity: 1;"/></g></g><g id="shape-864cb616-f91d-80fb-8006-b9a05c165edb"><g class="fills" id="fills-864cb616-f91d-80fb-8006-b9a05c165edb"><path d="M231.04327392578125,46.59173583984375L225.5369873046875,46.59173583984375L225.5369873046875,80.4285888671875L231.04327392578125,80.4285888671875L231.04327392578125,46.59173583984375Z" style="fill: rgb(255, 179, 0); fill-opacity: 1;"/></g></g><g id="shape-864cb616-f91d-80fb-8006-b9a05c165edc"><g class="fills" id="fills-864cb616-f91d-80fb-8006-b9a05c165edc"><path d="M251.3814697265625,80.6746826171875C253.4669189453125,80.6746826171875,255.41192626953125,80.22607421875,257.21588134765625,79.3060302734375C259.01983642578125,78.4093017578125,260.47271728515625,77.1351318359375,261.5272216796875,75.4599609375L261.90191650390625,80.438720703125L266.51776123046875,80.438720703125L266.51776123046875,63.04815673828125L251.3814697265625,63.04815673828125L251.3814697265625,68.0740966796875L260.98846435546875,68.0740966796875C260.37884521484375,70.55169677734375,259.20751953125,72.39208984375,257.45013427734375,73.5955810546875C255.6927490234375,74.7989501953125,253.701171875,75.43603515625,251.4989013671875,75.4599609375C248.61679077148438,75.483642578125,246.27407836914062,74.374755859375,244.46951293945312,72.1092529296875C242.66555786132812,69.86761474609375,241.7520751953125,67.05963134765625,241.7520751953125,63.7091064453125C241.7520751953125,60.2640380859375,242.66555786132812,57.36151123046875,244.46951293945312,55.02532958984375C246.27407836914062,52.68914794921875,248.66403198242188,51.5333251953125,251.63934326171875,51.5333251953125C254.00567626953125,51.5333251953125,255.97430419921875,52.2174072265625,257.56756591796875,53.58599853515625C259.13726806640625,54.95465087890625,260.1209716796875,56.60675048828125,260.47271728515625,58.5411376953125L266.51776123046875,58.5411376953125C266.001953125,54.9783935546875,264.43231201171875,52.02899169921875,261.83172607421875,49.7166748046875C259.23114013671875,47.42742919921875,255.90411376953125,46.2716064453125,251.87359619140625,46.2716064453125C247.21115112304688,46.2716064453125,243.36837768554688,47.923095703125,240.39306640625,51.202880859375C237.39349365234375,54.4827880859375,235.87103271484375,58.6356201171875,235.84744262695312,63.66156005859375C235.82382202148438,68.56976318359375,237.27667236328125,72.6280517578125,240.22900390625,75.837158203125C243.18133544921875,79.0701904296875,246.90670776367188,80.6746826171875,251.3814697265625,80.6746826171875Z" style="fill: rgb(255, 179, 0); fill-opacity: 1;"/></g></g><g id="shape-864cb616-f91d-80fb-8006-b9a05c165edd"><g class="fills" id="fills-864cb616-f91d-80fb-8006-b9a05c165edd"><path d="M299.602294921875,80.4715576171875L299.602294921875,46.58721923828125L294.56451416015625,46.58721923828125L294.56451416015625,73.2747802734375L278.9603271484375,46.58721923828125L272.4932861328125,46.58721923828125L272.4932861328125,80.4239501953125L277.53106689453125,80.4239501953125L277.53106689453125,54.5631103515625L292.64373779296875,80.4239501953125L299.602294921875,80.4715576171875Z" style="fill: rgb(255, 179, 0); fill-opacity: 1;"/></g></g><g id="shape-864cb616-f91d-80fb-8006-b9a05c165ede"><g class="fills" id="fills-864cb616-f91d-80fb-8006-b9a05c165ede"><path d="M144.113525390625,34.6583251953125L144.113525390625,19.58013916015625L159.90606689453125,19.58013916015625L159.90606689453125,34.6583251953125L165.52920532226562,34.6583251953125L165.52920532226562,0.8209228515625L159.90606689453125,0.8209228515625L159.90606689453125,14.931640625L144.113525390625,14.931640625L144.113525390625,0.8209228515625L138.51400756835938,0.8209228515625L138.51400756835938,34.6583251953125L144.113525390625,34.6583251953125Z" style="fill: rgb(255, 179, 0); fill-opacity: 1;"/></g></g><g id="shape-864cb616-f91d-80fb-8006-b9a05c165edf"><g class="fills" id="fills-864cb616-f91d-80fb-8006-b9a05c165edf"><path d="M197.34854125976562,30.264404296875C200.41769409179688,26.98455810546875,201.94076538085938,22.85546875,201.94076538085938,17.8765869140625C201.94076538085938,12.8507080078125,200.41769409179688,8.6978759765625,197.34854125976562,5.41796875C194.27938842773438,2.13812255859375,190.48318481445312,0.4859619140625,186.00845336914062,0.4859619140625C181.53302001953125,0.4859619140625,177.76043701171875,2.11431884765625,174.69131469726562,5.39422607421875C171.62216186523438,8.674072265625,170.075439453125,12.80316162109375,170.075439453125,17.7821044921875C170.075439453125,22.80792236328125,171.62216186523438,26.96075439453125,174.69131469726562,30.24066162109375C177.76043701171875,33.5205078125,181.53302001953125,35.17266845703125,186.00845336914062,35.17266845703125C190.48318481445312,35.17266845703125,194.27938842773438,33.5443115234375,197.34854125976562,30.264404296875ZM185.961181640625,30.00469970703125C182.98587036132812,30.00469970703125,180.5487060546875,28.84881591796875,178.60433959960938,26.55963134765625C176.6593017578125,24.27105712890625,175.6986083984375,21.392333984375,175.6986083984375,17.9234619140625C175.6986083984375,14.36077880859375,176.6593017578125,11.3875732421875,178.60433959960938,9.0513916015625C180.52572631835938,6.71533203125,182.98587036132812,5.55938720703125,186.00845336914062,5.55938720703125C189.03097534179688,5.55938720703125,191.53775024414062,6.73907470703125,193.48275756835938,9.0751953125C195.4271240234375,11.43450927734375,196.41146850585938,14.40771484375,196.41146850585938,18.01800537109375C196.41146850585938,21.50994873046875,195.45077514648438,24.38934326171875,193.5057373046875,26.63037109375C191.56134033203125,28.87200927734375,189.03097534179688,30.00469970703125,185.961181640625,30.00469970703125Z" style="fill: rgb(255, 179, 0); fill-opacity: 1;"/></g></g><g id="shape-864cb616-f91d-80fb-8006-b9a05c168b10"><g class="fills" id="fills-864cb616-f91d-80fb-8006-b9a05c168b10"><path d="M211.66525268554688,34.74774169921875L211.66525268554688,21.3216552734375L220.5924072265625,21.3216552734375C223.59133911132812,21.3216552734375,226.02850341796875,20.3541259765625,227.90264892578125,18.44293212890625C229.77682495117188,16.53173828125,230.71453857421875,14.10107421875,230.71453857421875,11.17547607421875C230.71453857421875,8.20220947265625,229.80047607421875,5.724609375,227.972900390625,3.765869140625C226.14532470703125,1.80767822265625,223.77896118164062,0.81640625,220.87326049804688,0.81640625L206.48699951171875,0.86334228515625L206.48699951171875,34.74774169921875L211.66525268554688,34.74774169921875ZM211.66525268554688,5.41796875L219.53790283203125,5.41796875C221.24859619140625,5.41796875,222.6778564453125,5.91302490234375,223.8026123046875,6.904296875C224.92672729492188,7.918701171875,225.4891357421875,9.3111572265625,225.4891357421875,11.104736328125C225.4891357421875,12.92138671875,224.92672729492188,14.29010009765625,223.8255615234375,15.257568359375C222.70083618164062,16.22509765625,221.27157592773438,16.7200927734375,219.53790283203125,16.7200927734375L211.66525268554688,16.7200927734375L211.66525268554688,5.41796875Z" style="fill: rgb(255, 179, 0); fill-opacity: 1;"/></g></g><g id="shape-864cb616-f91d-80fb-8006-b9a05c168b11"><g class="fills" id="fills-864cb616-f91d-80fb-8006-b9a05c168b11"><path d="M256.32476806640625,34.6583251953125L256.32476806640625,29.49041748046875L239.43109130859375,29.49041748046875L239.43109130859375,20.00506591796875L255.3167724609375,20.00506591796875L255.3167724609375,15.0499267578125L239.43109130859375,15.0499267578125L239.43109130859375,6.01263427734375L256.32476806640625,6.01263427734375L256.32476806640625,0.8209228515625L234.30014038085938,0.8209228515625L234.30014038085938,34.6583251953125L256.32476806640625,34.6583251953125Z" style="fill: rgb(255, 179, 0); fill-opacity: 1;"/></g></g><g id="shape-864cb616-f91d-80fb-8006-b9a05c168b12"><g class="fills" id="fills-864cb616-f91d-80fb-8006-b9a05c168b12"><path d="M85.10604858398438,31.135498046875L39.48004150390625,31.135498046875L39.48004150390625,50.09210205078125L85.10604858398438,50.09210205078125L85.10604858398438,31.135498046875Z" style="fill: rgb(255, 179, 0); fill-opacity: 1;"/></g></g><g id="shape-864cb616-f91d-80fb-8006-b9a05c168b13"><g class="fills" id="fills-864cb616-f91d-80fb-8006-b9a05c168b13"><path d="M39.48004150390625,31.135498046875L22.101226806640625,0.8209228515625L0.365753173828125,0.8209228515625L17.71392822265625,31.08148193359375L39.48004150390625,31.135498046875Z" fill-rule="evenodd" clip-rule="evenodd" style="fill: rgb(255, 179, 0); fill-opacity: 1;"/></g></g><g id="shape-864cb616-f91d-80fb-8006-b9a05c168b14"><g class="fills" id="fills-864cb616-f91d-80fb-8006-b9a05c168b14"><path d="M0.352996826171875,80.4285888671875L17.66925048828125,50.22381591796875L39.48004150390625,50.09271240234375L22.089111328125,80.4285888671875L0.352996826171875,80.4285888671875Z" fill-rule="evenodd" clip-rule="evenodd" style="fill: rgb(255, 179, 0); fill-opacity: 1;"/></g></g><g id="shape-864cb616-f91d-80fb-8006-b9a05c168b15"><g class="fills" id="fills-864cb616-f91d-80fb-8006-b9a05c168b15"><path d="M85.10604858398438,31.135498046875L102.4854736328125,0.8209228515625L124.220947265625,0.8209228515625L106.87277221679688,31.08148193359375L85.10604858398438,31.135498046875Z" fill-rule="evenodd" clip-rule="evenodd" style="fill: rgb(255, 179, 0); fill-opacity: 1;"/></g></g><g id="shape-864cb616-f91d-80fb-8006-b9a05c168b16"><g class="fills" id="fills-864cb616-f91d-80fb-8006-b9a05c168b16"><path d="M124.23309326171875,80.4285888671875L106.91744995117188,50.22381591796875L85.10604858398438,50.09271240234375L102.49758911132812,80.4285888671875L124.23309326171875,80.4285888671875Z" fill-rule="evenodd" clip-rule="evenodd" style="fill: rgb(255, 179, 0); fill-opacity: 1;"/></g></g></g></svg>