<svg width="506" height="125" viewBox="0 0 506 125" fill="none" xmlns="http://www.w3.org/2000/svg">
<path d="M479.236 71.686H489.896V73.678H485.709V84.854H483.404V73.678H479.236V71.686Z" fill="#F2F0EA"/>
<path d="M492.03 71.686H495.276L498.91 81.996H498.946L502.487 71.686H505.697V84.854H503.502V74.692H503.465L499.813 84.854H497.914L494.262 74.692H494.225V84.854H492.03V71.686Z" fill="#F2F0EA"/>
<path d="M236.591 124.208C243.529 124.171 249.291 121.639 253.953 116.61C258.578 111.581 260.89 105.231 260.89 97.523C260.89 89.925 258.504 83.649 253.769 78.694C248.998 73.738 243.015 71.316 235.857 71.426L216.991 71.573V124.355L236.591 124.208ZM224.809 79.795L235.857 79.648C240.592 79.538 244.556 81.153 247.75 84.53C250.943 87.943 252.521 92.348 252.521 97.817C252.521 103.213 250.906 107.617 247.64 110.994C244.373 114.408 240.335 116.133 235.527 116.243L224.809 116.39V79.795Z" fill="#F2F0EA"/>
<path d="M302.515 124.355V116.316H276.051V101.561H300.937V93.853H276.051V79.795H302.515V71.72H268.012V124.355H302.515Z" fill="#F2F0EA"/>
<path d="M326.705 124.668C332.395 124.668 337.093 123.236 340.727 120.41C344.361 117.584 346.196 113.803 346.196 109.031C346.196 104.884 344.728 101.433 341.755 98.754C338.781 96.074 333.753 94.349 326.632 93.542C320.025 92.771 315.988 90.202 315.988 86.201C315.988 84.402 316.832 82.751 318.484 81.319C320.135 79.888 322.411 79.19 325.311 79.19C328.247 79.19 330.743 79.961 332.835 81.466C334.891 83.007 336.029 85.1 336.212 87.779H345.058C344.801 82.567 342.966 78.493 339.479 75.52C335.992 72.546 331.294 71.078 325.384 71.078C319.952 71.078 315.474 72.583 311.913 75.556C308.353 78.529 306.591 82.2 306.591 86.494C306.591 90.348 308.206 93.652 311.473 96.368C314.74 99.121 319.952 100.846 327.183 101.617C333.606 102.241 336.799 104.7 336.799 108.958C336.799 111.013 335.882 112.849 334.046 114.427C332.211 116.042 329.752 116.85 326.705 116.85C319.988 116.85 315.804 113.656 314.483 107.93H305.16C305.563 113.289 307.839 117.4 312.023 120.3C316.208 123.2 321.09 124.668 326.705 124.668Z" fill="#F2F0EA"/>
<path d="M361.944 71.72H353.318V124.355H361.944V71.72Z" fill="#F2F0EA"/>
<path d="M393.805 124.738C397.072 124.738 400.119 124.04 402.945 122.609C405.771 121.214 408.047 119.232 409.699 116.626L410.286 124.371H417.517V97.319H393.805V105.137H408.855C407.9 108.991 406.065 111.854 403.312 113.726C400.559 115.598 397.439 116.589 393.989 116.626C389.474 116.663 385.804 114.938 382.977 111.414C380.151 107.927 378.72 103.559 378.72 98.347C378.72 92.988 380.151 88.473 382.977 84.839C385.804 81.205 389.548 79.407 394.209 79.407C397.916 79.407 401 80.471 403.496 82.6C405.955 84.729 407.496 87.299 408.047 90.308H417.517C416.709 84.766 414.25 80.178 410.176 76.581C406.102 73.02 400.89 71.222 394.576 71.222C387.272 71.222 381.252 73.791 376.591 78.893C371.892 83.995 369.507 90.455 369.47 98.273C369.433 105.908 371.709 112.221 376.334 117.213C380.959 122.242 386.795 124.738 393.805 124.738Z" fill="#F2F0EA"/>
<path d="M469.346 124.422V71.713H461.454V113.227L437.009 71.713H426.878V124.348H434.77V84.12L458.445 124.348L469.346 124.422Z" fill="#F2F0EA"/>
<path d="M225.763 53.157V29.702H250.503V53.157H259.312V0.520996H250.503V22.471H225.763V0.520996H216.991V53.157H225.763Z" fill="#F2F0EA"/>
<path d="M309.159 46.322C313.967 41.22 316.353 34.797 316.353 27.052C316.353 19.234 313.967 12.774 309.159 7.672C304.351 2.57 298.404 0 291.394 0C284.383 0 278.473 2.533 273.665 7.635C268.857 12.737 266.434 19.16 266.434 26.905C266.434 34.723 268.857 41.183 273.665 46.285C278.473 51.387 284.383 53.957 291.394 53.957C298.404 53.957 304.351 51.424 309.159 46.322ZM291.32 45.918C286.659 45.918 282.841 44.12 279.795 40.559C276.748 36.999 275.243 32.521 275.243 27.125C275.243 21.583 276.748 16.958 279.795 13.324C282.805 9.69 286.659 7.892 291.394 7.892C296.129 7.892 300.056 9.727 303.103 13.361C306.149 17.031 307.691 21.656 307.691 27.272C307.691 32.704 306.186 37.183 303.139 40.669C300.093 44.156 296.129 45.918 291.32 45.918Z" fill="#F2F0EA"/>
<path d="M331.587 53.296V32.411H345.572C350.27 32.411 354.088 30.906 357.024 27.933C359.96 24.96 361.429 21.179 361.429 16.628C361.429 12.003 359.997 8.14898 357.134 5.10198C354.271 2.05598 350.564 0.513977 346.012 0.513977L323.475 0.586977V53.296H331.587ZM331.587 7.67198H343.92C346.6 7.67198 348.839 8.44198 350.601 9.98398C352.362 11.562 353.243 13.728 353.243 16.518C353.243 19.344 352.362 21.473 350.637 22.978C348.875 24.483 346.636 25.253 343.92 25.253H331.587V7.67198Z" fill="#F2F0EA"/>
<path d="M401.549 53.157V45.118H375.084V30.363H399.97V22.655H375.084V8.597H401.549V0.520996H367.046V53.157H401.549Z" fill="#F2F0EA"/>
<path d="M133.324 47.677H61.848V77.165H133.324V47.677Z" fill="#F2F0EA"/>
<path fill-rule="evenodd" clip-rule="evenodd" d="M61.848 47.677L34.623 0.520996H0.572998L27.75 47.593L61.848 47.677Z" fill="#F2F0EA"/>
<path fill-rule="evenodd" clip-rule="evenodd" d="M0.552979 124.355L27.68 77.37L61.848 77.166L34.604 124.355H0.552979Z" fill="#F2F0EA"/>
<path fill-rule="evenodd" clip-rule="evenodd" d="M133.324 47.677L160.55 0.520996H194.6L167.423 47.593L133.324 47.677Z" fill="#F2F0EA"/>
<path fill-rule="evenodd" clip-rule="evenodd" d="M194.619 124.355L167.493 77.37L133.324 77.166L160.569 124.355H194.619Z" fill="#F2F0EA"/>
</svg>
